<svg xmlns="http://www.w3.org/2000/svg" xmlns:xlink="http://www.w3.org/1999/xlink" width="138" height="138" viewBox="0 0 138 138">
  <defs>
    <linearGradient id="linear-gradient" x1="0.5" x2="0.5" y2="1" gradientUnits="objectBoundingBox">
      <stop offset="0" stop-color="#21b4cf"/>
      <stop offset="1" stop-color="#34c8a6"/>
    </linearGradient>
    <clipPath id="clip-path">
      <rect id="Rectangle_15216" data-name="Rectangle 15216" width="70.519" height="69.129" fill="none"/>
    </clipPath>
  </defs>
  <g id="Group_52754" data-name="Group 52754" transform="translate(-75 -22)">
    <g id="Group_52750" data-name="Group 52750" transform="translate(-379 -1477)">
      <circle id="Ellipse_10670" data-name="Ellipse 10670" cx="69" cy="69" r="69" transform="translate(454 1499)" fill="url(#linear-gradient)"/>
    </g>
    <g id="Group_52753" data-name="Group 52753" transform="translate(-995.99 -1335.129)">
      <g id="Group_52405" data-name="Group 52405" transform="translate(1104.25 1391)">
        <rect id="Rectangle_15196" data-name="Rectangle 15196" width="68.435" height="52.455" transform="translate(1.042 15.632)" fill="#fff"/>
        <path id="Path_42579" data-name="Path 42579" d="M2.084,23.084h66.35V73.455H2.084ZM0,75.539H70.519V21H0Z" transform="translate(0 -6.41)" fill="#484f59"/>
        <rect id="Rectangle_15197" data-name="Rectangle 15197" width="59.635" height="19.106" transform="translate(5.442 27.907)" fill="#01cbd6"/>
        <path id="Path_42580" data-name="Path 42580" d="M68.052,59.857H6.333V38.667H68.052ZM8.417,57.773h57.55V40.751H8.417Z" transform="translate(-1.933 -11.802)" fill="#484f59"/>
        <rect id="Rectangle_15198" data-name="Rectangle 15198" width="68.435" height="6.6" transform="translate(1.042 15.632)" fill="#cdd5d7"/>
        <path id="Path_42581" data-name="Path 42581" d="M2.084,23.084h66.35V27.6H2.084ZM0,29.685H70.519V21H0Z" transform="translate(0 -6.41)" fill="#484f59"/>
        <rect id="Rectangle_15199" data-name="Rectangle 15199" width="2.148" height="2.084" transform="translate(3.474 17.833)" fill="#484f59"/>
        <rect id="Rectangle_15200" data-name="Rectangle 15200" width="2.148" height="2.084" transform="translate(7.191 17.833)" fill="#484f59"/>
        <rect id="Rectangle_15201" data-name="Rectangle 15201" width="2.148" height="2.084" transform="translate(10.908 17.833)" fill="#484f59"/>
        <rect id="Rectangle_15202" data-name="Rectangle 15202" width="40.123" height="2.084" transform="translate(21.208 51.005)" fill="#484f59"/>
        <rect id="Rectangle_15203" data-name="Rectangle 15203" width="40.123" height="2.084" transform="translate(21.208 54.826)" fill="#484f59"/>
        <rect id="Rectangle_15204" data-name="Rectangle 15204" width="40.123" height="2.084" transform="translate(21.208 58.648)" fill="#484f59"/>
        <rect id="Rectangle_15205" data-name="Rectangle 15205" width="40.123" height="2.084" transform="translate(21.208 62.469)" fill="#484f59"/>
        <rect id="Rectangle_15206" data-name="Rectangle 15206" width="11.464" height="11.464" transform="translate(5.619 52.047)" fill="#84f8fe"/>
        <path id="Path_42582" data-name="Path 42582" d="M20.136,86.961H6.588V73.413H20.136ZM8.672,84.877h9.379V75.5H8.672Z" transform="translate(-2.011 -22.408)" fill="#484f59"/>
        <g id="Group_52404" data-name="Group 52404">
          <g id="Group_52403" data-name="Group 52403" clip-path="url(#clip-path)">
            <path id="Rectangle_15207" data-name="Rectangle 15207" d="M3.063,0H30.992a3.063,3.063,0,0,1,3.063,3.063V63.981a3.065,3.065,0,0,1-3.065,3.065H3.063A3.063,3.063,0,0,1,0,63.983V3.063A3.063,3.063,0,0,1,3.063,0Z" transform="translate(31.51 1.042)" fill="#b7bec0"/>
            <path id="Path_42583" data-name="Path 42583" d="M76.823,69.129h-29.8a3.174,3.174,0,0,1-3.171-3.17V3.171A3.174,3.174,0,0,1,47.024,0h29.8a3.174,3.174,0,0,1,3.17,3.171V65.96a3.174,3.174,0,0,1-3.17,3.17M47.024,2.084a1.088,1.088,0,0,0-1.087,1.087V65.96a1.087,1.087,0,0,0,1.087,1.085h29.8a1.087,1.087,0,0,0,1.085-1.085V3.171a1.087,1.087,0,0,0-1.085-1.087Z" transform="translate(-13.385 0)" fill="#484f59"/>
            <rect id="Rectangle_15208" data-name="Rectangle 15208" width="28.545" height="48.421" transform="translate(34.265 10.089)" fill="#fff"/>
            <rect id="Rectangle_15209" data-name="Rectangle 15209" width="18.951" height="14.396" transform="translate(39.062 15.522)" fill="#01cbd6"/>
            <path id="Path_42584" data-name="Path 42584" d="M73.674,35.237H56.807V22.925H73.674Zm2.084-14.4H54.723V37.322H75.758Z" transform="translate(-16.703 -6.361)" fill="#484f59"/>
            <rect id="Rectangle_15210" data-name="Rectangle 15210" width="11.377" height="2.084" transform="translate(42.849 4.756)" fill="#484f59"/>
            <rect id="Rectangle_15211" data-name="Rectangle 15211" width="2.084" height="2.084" transform="translate(47.495 61.495)" fill="#484f59"/>
            <rect id="Rectangle_15212" data-name="Rectangle 15212" width="21.017" height="2.084" transform="translate(38.02 34.563)" fill="#484f59"/>
            <rect id="Rectangle_15213" data-name="Rectangle 15213" width="21.017" height="2.084" transform="translate(38.02 38.384)" fill="#484f59"/>
            <rect id="Rectangle_15214" data-name="Rectangle 15214" width="21.017" height="2.084" transform="translate(38.02 42.205)" fill="#484f59"/>
            <rect id="Rectangle_15215" data-name="Rectangle 15215" width="21.017" height="2.084" transform="translate(38.02 46.026)" fill="#484f59"/>
          </g>
        </g>
      </g>
    </g>
  </g>
</svg>
