<svg xmlns="http://www.w3.org/2000/svg" width="29.744" height="29.744" viewBox="0 0 29.744 29.744">
  <g id="Group_22445" data-name="Group 22445" transform="translate(5359.741 -4457.258)">
    <circle id="Ellipse_10428" data-name="Ellipse 10428" cx="14.62" cy="14.62" r="14.62" transform="translate(-5359.231 4457.258) rotate(1)" fill="#fff"/>
    <path id="Path_35216" data-name="Path 35216" d="M6.72,22.9l1.22-4.55a8.455,8.455,0,1,1,3.36,3.32Zm4.8-2.93.29.17a6.808,6.808,0,1,0-3.33-5.85,6.713,6.713,0,0,0,1,3.53l.18.29-.68,2.54Z" transform="translate(-5359.488 4457.51)" fill="#20314f"/>
    <path id="Path_35217" data-name="Path 35217" d="M18.41,15.46a1.392,1.392,0,0,0-1.2-.27c-.31.13-.51.62-.71.87a.293.293,0,0,1-.39.08,5.485,5.485,0,0,1-2.72-2.33.341.341,0,0,1,.04-.46,1.76,1.76,0,0,0,.49-.8,1.774,1.774,0,0,0-.22-.95,2.275,2.275,0,0,0-.7-1.06.971.971,0,0,0-1.04.15,2.1,2.1,0,0,0-.73,1.68,1.882,1.882,0,0,0,.07.53,4.262,4.262,0,0,0,.51,1.18,8.67,8.67,0,0,0,.53.81,8.452,8.452,0,0,0,2.31,2.15,7.058,7.058,0,0,0,1.44.69,3.23,3.23,0,0,0,1.68.27,2.028,2.028,0,0,0,1.52-1.13,1.051,1.051,0,0,0,.07-.58C19.27,15.89,18.73,15.65,18.41,15.46Z" transform="translate(-5359.488 4457.51)" fill="#20314f" fill-rule="evenodd"/>
  </g>
</svg>
